# xmcd CD database file generated by Grip 2.94
# 
# Track frame offsets:
#       150
#       16703
#       34454
#       47063
#       61713
#       75653
#       89769
#       108004
#       122099
#       138096
#       151338
#       168449
# 
# Disc length: 2441 seconds
# 
# Revision: 3
# Processed by: cddbd v1.4b41PL1 Copyright (c) Steve Scherf et al.
# Submitted via: Grip 2.94
# 
DISCID=8d09870c
DTITLE=Bo Reynolds - Out in Texas
DYEAR=1900
DGENRE=
TTITLE0=out in texas
TTITLE1=going back to houston
TTITLE2=new waterloo
TTITLE3=porque no me dejas en paz
TTITLE4=blue bonnet toast
TTITLE5=san antonio christmas
TTITLE6=matagorda bay
TTITLE7=say your prayers (y2k blues)
TTITLE8=moses rose
TTITLE9=estoy ansioso
TTITLE10=distant patio
TTITLE11=big december moon
EXTD=
EXTT0=
EXTT1=
EXTT2=
EXTT3=
EXTT4=
EXTT5=
EXTT6=
EXTT7=
EXTT8=
EXTT9=
EXTT10=
EXTT11=
PLAYORDER=
